<?xml version="1.0" standalone="no"?>
<!DOCTYPE svg PUBLIC "-//W3C//DTD SVG 20010904//EN"
 "http://www.w3.org/TR/2001/REC-SVG-20010904/DTD/svg10.dtd">
<svg version="1.0" xmlns="http://www.w3.org/2000/svg"
 width="601.000000pt" height="601.000000pt" viewBox="0 0 601.000000 601.000000"
 preserveAspectRatio="xMidYMid meet">
<metadata>
Created by potrace 1.14, written by Peter Selinger 2001-2017
</metadata>
<g transform="translate(0.000000,601.000000) scale(0.100000,-0.100000)"
fill="#000000" stroke="none">
<path d="M3490 5999 c-138 -16 -168 -21 -205 -31 -22 -5 -50 -12 -62 -14 -36
-7 -205 -63 -258 -87 -119 -52 -216 -110 -576 -341 -69 -45 -133 -85 -142 -91
-9 -5 -121 -77 -249 -159 -128 -83 -296 -190 -373 -239 -422 -271 -447 -289
-570 -412 -98 -98 -118 -121 -187 -221 -107 -153 -184 -321 -231 -500 -42
-163 -52 -250 -51 -449 0 -149 4 -190 24 -295 6 -30 13 -67 15 -81 13 -72 100
-306 132 -354 19 -29 18 -34 -36 -123 -26 -45 -60 -112 -75 -150 -16 -37 -32
-76 -36 -87 -30 -69 -69 -230 -87 -355 -10 -66 -10 -365 -1 -435 9 -73 26
-150 49 -235 12 -41 22 -79 23 -85 12 -58 105 -258 168 -360 139 -224 354
-447 571 -588 90 -60 338 -183 387 -193 3 0 14 -4 25 -8 256 -97 647 -129 920
-75 27 6 61 12 75 15 14 2 50 11 80 20 201 58 314 112 555 264 170 107 766
486 920 585 44 28 115 74 158 101 363 228 484 325 622 499 159 199 284 476
321 710 3 22 8 43 10 46 6 10 18 191 18 274 -1 245 -57 490 -160 699 l-34 69
36 58 c103 170 186 404 210 589 3 19 7 46 10 60 16 81 11 353 -10 485 -13 78
-55 243 -75 290 -5 11 -19 45 -31 75 -132 325 -390 633 -705 839 -155 101
-434 219 -591 251 -27 5 -60 12 -74 15 -14 3 -45 7 -70 10 -25 3 -58 9 -75 12
-43 8 -300 10 -365 2z"/>
</g>
</svg>
